<svg width="376" height="197" viewBox="0 0 376 197" fill="none" xmlns="http://www.w3.org/2000/svg">
<path d="M70.275 149.488V153.201H50.6385V169.124H46.6437V130.864H72.5819V134.521H50.6385V149.488H70.275ZM102.833 148.137V151.851H82.5777V165.467H105.196V169.124H78.5829V130.864H105.196V134.521H82.5777V148.137H102.833ZM137.19 148.137V151.851H116.935V165.467H139.553V169.124H112.94V130.864H139.553V134.521H116.935V148.137H137.19ZM160.181 130.414C163.144 130.414 165.845 130.864 168.283 131.764C170.759 132.665 172.878 133.959 174.641 135.647C176.442 137.297 177.83 139.323 178.805 141.723C179.78 144.086 180.268 146.75 180.268 149.713C180.268 152.751 179.78 155.508 178.805 157.984C177.83 160.422 176.461 162.504 174.698 164.229C172.972 165.917 170.909 167.23 168.508 168.168C166.145 169.068 163.538 169.518 160.688 169.518C159.562 169.518 158.381 169.499 157.143 169.462C155.905 169.462 154.686 169.443 153.486 169.406C152.323 169.368 151.198 169.312 150.11 169.237C149.059 169.199 148.122 169.162 147.297 169.124V130.864C148.122 130.827 149.059 130.789 150.11 130.752C151.16 130.677 152.248 130.62 153.373 130.583C154.498 130.545 155.642 130.508 156.805 130.47C157.968 130.433 159.093 130.414 160.181 130.414ZM160.688 165.805C162.938 165.805 165.001 165.448 166.877 164.736C168.752 163.985 170.365 162.916 171.716 161.528C173.066 160.141 174.116 158.453 174.866 156.465C175.654 154.477 176.048 152.226 176.048 149.713C176.048 147.312 175.654 145.155 174.866 143.242C174.116 141.292 173.047 139.641 171.659 138.291C170.271 136.941 168.602 135.909 166.652 135.196C164.701 134.484 162.544 134.127 160.181 134.127C158.756 134.127 157.274 134.146 155.736 134.184C154.198 134.221 152.717 134.277 151.291 134.353V165.636C152.829 165.711 154.405 165.767 156.018 165.805C157.631 165.805 159.187 165.805 160.688 165.805ZM207.227 149.432C210.265 149.957 212.591 151.026 214.203 152.639C215.854 154.252 216.679 156.258 216.679 158.659C216.679 162.26 215.385 164.979 212.797 166.817C210.209 168.655 206.701 169.574 202.275 169.574C201.112 169.574 199.893 169.556 198.618 169.518C197.343 169.481 196.049 169.443 194.736 169.406C193.46 169.368 192.204 169.312 190.966 169.237C189.728 169.199 188.565 169.162 187.478 169.124V130.864C188.415 130.827 189.466 130.789 190.628 130.752C191.829 130.714 193.048 130.677 194.286 130.639C195.561 130.602 196.855 130.583 198.168 130.583C199.481 130.545 200.737 130.526 201.938 130.526C205.914 130.526 209.027 131.37 211.278 133.058C213.528 134.709 214.654 137.166 214.654 140.429C214.654 142.68 214.016 144.593 212.741 146.168C211.465 147.706 209.627 148.794 207.227 149.432ZM201.544 134.071C199.856 134.071 198.149 134.09 196.424 134.127C194.698 134.165 193.048 134.221 191.472 134.296V148.025H201.375C204.338 148.025 206.645 147.406 208.296 146.168C209.984 144.93 210.828 143.186 210.828 140.936C210.828 138.572 210.002 136.847 208.352 135.759C206.739 134.634 204.47 134.071 201.544 134.071ZM201.881 166.03C205.257 166.03 207.902 165.411 209.815 164.173C211.728 162.898 212.684 160.966 212.684 158.378C212.684 156.127 211.747 154.42 209.871 153.258C207.996 152.057 205.539 151.457 202.5 151.457H191.472V165.748C193.348 165.823 195.13 165.898 196.818 165.973C198.506 166.011 200.193 166.03 201.881 166.03ZM224.549 169.124H220.048L237.49 130.583H241.26L258.646 169.124H254.201L250.037 159.784H228.713L224.549 169.124ZM230.232 156.183H248.462L239.347 135.703L230.232 156.183ZM293.906 135.647C291.693 135.046 289.611 134.596 287.66 134.296C285.747 133.996 283.891 133.846 282.09 133.846C279.315 133.846 276.858 134.24 274.72 135.028C272.581 135.815 270.762 136.922 269.262 138.347C267.799 139.735 266.674 141.423 265.886 143.411C265.136 145.399 264.761 147.575 264.761 149.938C264.761 152.376 265.154 154.608 265.942 156.633C266.73 158.621 267.855 160.328 269.318 161.754C270.781 163.179 272.544 164.285 274.607 165.073C276.67 165.861 278.977 166.255 281.528 166.255C283.216 166.255 285.185 166.086 287.435 165.748C289.686 165.411 292.105 164.886 294.694 164.173L295.481 167.661C293.006 168.412 290.568 168.974 288.167 169.349C285.766 169.762 283.497 169.968 281.359 169.968C278.208 169.968 275.357 169.499 272.807 168.562C270.256 167.586 268.062 166.236 266.224 164.511C264.423 162.748 263.035 160.647 262.06 158.209C261.085 155.733 260.597 152.995 260.597 149.994C260.597 146.993 261.085 144.274 262.06 141.836C263.035 139.36 264.442 137.26 266.28 135.534C268.118 133.771 270.331 132.421 272.919 131.483C275.507 130.508 278.414 130.02 281.64 130.02C283.891 130.02 286.104 130.189 288.279 130.526C290.492 130.827 292.631 131.295 294.694 131.933L293.906 135.647ZM307.071 169.124H303.076V130.864H307.071V149.432H311.122L327.945 130.864H332.952L315.904 149.657L334.415 169.124H329.352L313.879 153.258H307.071V169.124ZM364.476 135.928C362.301 135.29 360.05 134.784 357.724 134.409C355.436 133.996 353.373 133.79 351.535 133.79C348.76 133.79 346.528 134.409 344.84 135.647C343.189 136.847 342.364 138.572 342.364 140.823C342.364 141.798 342.552 142.623 342.927 143.299C343.302 143.974 343.883 144.574 344.671 145.099C345.459 145.587 346.471 146.018 347.709 146.393C348.947 146.768 350.41 147.125 352.098 147.462C354.236 147.912 356.187 148.4 357.949 148.925C359.75 149.45 361.288 150.125 362.563 150.951C363.876 151.738 364.889 152.751 365.602 153.989C366.314 155.227 366.671 156.783 366.671 158.659C366.671 160.497 366.314 162.129 365.602 163.554C364.926 164.942 363.951 166.123 362.676 167.099C361.4 168.036 359.881 168.749 358.118 169.237C356.393 169.724 354.499 169.968 352.436 169.968C349.96 169.968 347.315 169.687 344.502 169.124C341.689 168.562 339.026 167.774 336.513 166.761L337.582 163.048C340.17 164.098 342.758 164.904 345.346 165.467C347.934 165.992 350.354 166.255 352.604 166.255C355.568 166.255 357.968 165.636 359.806 164.398C361.682 163.16 362.619 161.36 362.619 158.997C362.619 157.534 362.244 156.352 361.494 155.452C360.744 154.552 359.75 153.82 358.512 153.258C357.312 152.695 355.943 152.245 354.405 151.907C352.904 151.57 351.385 151.232 349.847 150.894C347.709 150.444 345.89 149.957 344.39 149.432C342.927 148.869 341.726 148.212 340.789 147.462C339.888 146.675 339.213 145.756 338.763 144.705C338.351 143.655 338.144 142.417 338.144 140.992C338.144 139.304 338.463 137.803 339.101 136.491C339.776 135.14 340.695 134.015 341.858 133.115C343.058 132.177 344.483 131.464 346.134 130.977C347.784 130.451 349.622 130.189 351.648 130.189C354.086 130.189 356.543 130.414 359.019 130.864C361.532 131.314 363.689 131.858 365.489 132.496L364.476 135.928Z" fill="white"/>
<g clip-path="url(#clip0_5_1511)">
<path d="M376 52.7513V39.2089C375.562 39.9424 366.963 51.9691 341.861 67.5369V81.8552C343.495 81.0751 345.877 79.7073 349.653 77.4369C352.934 75.1579 369.869 62.998 376 52.7513Z" fill="white"/>
<path d="M139.298 88.155H157.361V0H142.573C137.411 0.253684 130.735 2.0041 126.483 12.3121L101.81 65.8943H101.571L76.8796 12.3121C72.6368 2.0041 65.9522 0.253684 60.7982 0H46V88.155H64.0644V23.4256L88.7034 75.9444L92.6165 84.5802C94.2506 88.155 98.447 88.155 98.447 88.155H104.914C104.914 88.155 109.11 88.155 110.742 84.5739L114.655 75.938L139.298 23.4256V88.155ZM222.139 45.3184H179.15C179.922 42.0953 181.078 39.488 182.617 37.4965C184.04 35.6144 185.803 34.0148 187.813 32.7801C189.714 31.6395 191.803 30.8477 193.982 30.442C196.072 30.0337 198.195 29.8214 200.324 29.8078C206.055 29.8078 210.824 30.9867 214.632 33.3446C218.44 35.7024 220.942 39.6916 222.139 45.3121V45.3184ZM238.508 53.1023C238.655 51.9675 238.682 50.8202 238.588 49.6797C238.236 46.6882 237.602 43.7367 236.696 40.8642C235.111 35.9878 232.736 31.8302 229.574 28.3914C226.411 24.9526 222.44 22.2847 217.659 20.3877C212.867 18.4851 207.221 17.4922 200.719 17.409C194.387 17.409 188.827 18.3603 184.038 20.263C179.249 22.1656 175.25 24.7504 172.041 28.0172C168.869 31.2254 166.419 35.0733 164.853 39.304C163.262 43.6123 162.459 48.1715 162.481 52.7641C162.481 57.9787 163.379 62.7747 165.174 67.1521C166.904 71.4384 169.554 75.2922 172.937 78.4411C176.319 81.5853 180.447 84.0454 185.321 85.8211C190.194 87.5969 195.713 88.4855 201.876 88.4869C208.293 88.4869 213.703 87.5779 218.107 85.7598C222.512 83.9418 226.126 81.8327 228.95 79.4325C231.769 77.0366 233.883 74.597 235.292 72.1138C236.702 69.6305 237.536 67.687 237.795 66.2833H225.401C223.016 66.3573 222.272 66.6427 221.583 66.9936C220.812 67.392 220.111 67.9132 219.507 68.5368C218.651 69.3764 217.752 70.1709 216.814 70.9172C215.855 71.7595 214.822 72.5124 213.727 73.1666C210.521 75.1115 206.394 76.0832 201.345 76.0818C196.467 75.9197 192.554 75.0311 189.604 73.416C186.654 71.8009 184.408 69.9814 182.866 67.9576C181.325 65.9323 180.277 63.9064 179.723 61.8798C179.28 60.3492 178.916 58.7969 178.632 57.2289H233.092C233.236 57.2089 233.381 57.1969 233.527 57.193C236.094 57.0809 237.941 56.4234 238.508 53.1086V53.1023ZM260.521 57.8716V34.5813H274.637C278.04 34.5813 279.743 32.8485 279.744 29.3829V20.6245H260.521V5.47956C260.521 2.0196 258.869 0.288213 255.566 0.285394H244.004V57.8716C244.004 62.9213 244.33 67.3509 244.981 71.1603C245.632 74.9698 246.908 78.1373 248.809 80.6629C250.711 83.1871 253.414 85.0671 256.919 86.3031C260.424 87.5391 265.079 88.1585 270.884 88.1614H280.945V79.4008C280.945 75.938 279.243 74.206 275.839 74.2045C272.334 74.2045 269.581 74.0805 267.58 73.8325C265.579 73.5844 264.052 72.9164 262.999 71.8284C261.947 70.7404 261.272 69.1069 260.974 66.9281C260.675 64.7492 260.524 61.7304 260.521 57.8716Z" fill="white"/>
<path d="M357.805 51.3836V41.9042C357.784 39.3074 357.572 36.7157 357.17 34.15C356.748 31.2989 355.464 28.6119 353.321 26.0892C351.177 23.5664 347.814 21.4369 343.233 19.7006C338.656 17.9629 332.219 17.094 323.921 17.094C320.443 17.1105 316.971 17.3591 313.526 17.8381C309.887 18.3244 306.34 19.3489 303.003 20.8781C299.652 22.419 296.643 24.6116 294.149 27.328C291.587 30.1087 289.838 33.768 288.902 38.3062H305.457C305.761 37.2846 306.192 36.3053 306.74 35.3909C307.339 34.3579 308.302 33.4066 309.628 32.537C310.954 31.6674 312.771 30.9437 315.08 30.3659C317.39 29.7894 320.384 29.5005 324.062 29.4991C330.65 29.4991 335.27 30.3053 337.922 31.9176C340.574 33.5299 341.901 35.6178 341.901 38.1814V41.1601C338.219 41.4082 334.241 41.6971 329.965 42.0269C325.703 42.3564 321.463 42.916 317.262 43.7033C313.166 44.4645 309.118 45.4583 305.136 46.6798C301.242 47.8806 297.82 49.4513 294.87 51.392C292.041 53.2161 289.616 55.6022 287.748 58.4021C285.951 61.1292 285.053 64.3538 285.054 68.0759C285.054 72.2138 286.016 75.5843 287.94 78.1873C289.804 80.7339 292.216 82.8291 294.999 84.318C297.727 85.7891 300.673 86.8147 303.726 87.3559C306.38 87.8573 309.063 88.1975 311.759 88.3748C315.044 88.5418 315.575 88.5376 320.152 88.1634C329.684 87.2481 336.1 84.9015 341.856 81.9228C341.959 82.9281 342.296 83.8954 342.839 84.7472C343.846 86.7999 346.283 87.9626 348.824 88.1486H357.781V73.6083H357.805V73.5597L357.762 73.5935V68.9617L341.789 67.6489C340.271 68.541 338.551 69.4712 336.63 70.4394C334.525 71.4909 332.361 72.4233 330.151 73.232C327.681 74.1334 325.151 74.8582 322.578 75.401C319.773 75.9918 316.913 76.283 314.046 76.2699C310.11 76.2699 307.18 75.4433 305.256 73.7902C303.332 72.137 302.416 69.8623 302.508 66.9661C302.592 64.0741 303.812 61.7592 306.165 60.0215C308.519 58.2837 312.175 56.8363 317.135 55.6793C320.899 54.7702 324.814 54.0261 328.878 53.4468C333.197 52.8467 337.545 52.4734 341.903 52.3285V64.6153C348.228 60.7677 353.53 56.0302 357.815 51.3899" fill="white"/>
<path d="M376 52.7513V39.2089C375.776 39.583 373.421 42.9 367.844 48.1237V62.552C371.121 59.3365 374.087 55.9499 376 52.7513" fill="white"/>
<path d="M357.8 56.5799C353.439 59.9285 348.169 63.6217 341.85 67.5432V81.8552C343.484 81.0752 345.867 79.7053 349.642 77.4369C350.877 76.5913 354.023 74.342 357.802 71.3316L357.8 56.5799Z" fill="white"/>
</g>
<g clip-path="url(#clip1_5_1511)">
<path d="M32 145.491H2.71252V150.998H32V145.491Z" fill="#A1C008"/>
<path d="M6.50833 39.7544H0V151H6.50833V39.7544Z" fill="#A1C008"/>
<path d="M29.2875 37H0V42.5065H29.2875V37Z" fill="#A1C008"/>
</g>
<defs>
<clipPath id="clip0_5_1511">
<rect width="329.989" height="88.489" fill="white" transform="translate(46)"/>
</clipPath>
<clipPath id="clip1_5_1511">
<rect width="32" height="114" fill="white" transform="translate(0 37)"/>
</clipPath>
</defs>
</svg>
