<svg width="330" height="89" viewBox="0 0 330 89" fill="none" xmlns="http://www.w3.org/2000/svg">
<g clip-path="url(#clip0_5_1513)">
<path d="M330 52.7513V39.2089C329.562 39.9424 320.963 51.9691 295.861 67.5369V81.8552C297.495 81.0751 299.877 79.7073 303.653 77.4369C306.934 75.1579 323.869 62.998 330 52.7513Z" fill="white"/>
<path d="M93.2985 88.155H111.361V0H96.5731C91.4106 0.253684 84.7345 2.0041 80.4832 12.3121L55.8104 65.8943H55.5715L30.8796 12.3121C26.6368 2.0041 19.9522 0.253684 14.7982 0H0V88.155H18.0644V23.4256L42.7034 75.9444L46.6165 84.5802C48.2506 88.155 52.447 88.155 52.447 88.155H58.9138C58.9138 88.155 63.1101 88.155 64.7422 84.5739L68.6552 75.938L93.2985 23.4256V88.155ZM176.139 45.3184H133.15C133.922 42.0953 135.078 39.488 136.617 37.4965C138.04 35.6144 139.803 34.0148 141.813 32.7801C143.714 31.6395 145.803 30.8477 147.982 30.442C150.072 30.0337 152.195 29.8214 154.324 29.8078C160.055 29.8078 164.824 30.9867 168.632 33.3446C172.44 35.7024 174.942 39.6916 176.139 45.3121V45.3184ZM192.508 53.1023C192.655 51.9675 192.682 50.8202 192.588 49.6797C192.236 46.6882 191.602 43.7367 190.696 40.8642C189.111 35.9878 186.736 31.8302 183.574 28.3914C180.411 24.9526 176.44 22.2847 171.659 20.3877C166.867 18.4851 161.221 17.4922 154.719 17.409C148.387 17.409 142.827 18.3603 138.038 20.263C133.249 22.1656 129.25 24.7504 126.041 28.0172C122.869 31.2254 120.419 35.0733 118.853 39.304C117.262 43.6123 116.459 48.1715 116.481 52.7641C116.481 57.9787 117.379 62.7747 119.174 67.1521C120.904 71.4384 123.554 75.2922 126.937 78.4411C130.319 81.5853 134.447 84.0454 139.321 85.8211C144.194 87.5969 149.713 88.4855 155.876 88.4869C162.293 88.4869 167.703 87.5779 172.107 85.7598C176.512 83.9418 180.126 81.8327 182.95 79.4325C185.769 77.0366 187.883 74.597 189.292 72.1138C190.702 69.6305 191.536 67.687 191.795 66.2833H179.401C177.016 66.3573 176.272 66.6427 175.583 66.9936C174.812 67.392 174.111 67.9132 173.507 68.5368C172.651 69.3764 171.752 70.1709 170.814 70.9172C169.855 71.7595 168.822 72.5124 167.727 73.1666C164.521 75.1115 160.394 76.0832 155.345 76.0818C150.467 75.9197 146.554 75.0311 143.604 73.416C140.654 71.8009 138.408 69.9814 136.866 67.9576C135.325 65.9323 134.277 63.9064 133.723 61.8798C133.28 60.3492 132.916 58.7969 132.632 57.2289H187.092C187.236 57.2089 187.381 57.1969 187.527 57.193C190.094 57.0809 191.941 56.4234 192.508 53.1086V53.1023ZM214.521 57.8716V34.5813H228.637C232.04 34.5813 233.743 32.8485 233.744 29.3829V20.6245H214.521V5.47956C214.521 2.0196 212.869 0.288213 209.566 0.285394H198.004V57.8716C198.004 62.9213 198.33 67.3509 198.981 71.1603C199.632 74.9698 200.908 78.1373 202.809 80.6629C204.711 83.1871 207.414 85.0671 210.919 86.3031C214.424 87.5391 219.079 88.1585 224.884 88.1614H234.945V79.4008C234.945 75.938 233.243 74.206 229.839 74.2045C226.334 74.2045 223.581 74.0805 221.58 73.8325C219.579 73.5844 218.052 72.9164 216.999 71.8284C215.947 70.7404 215.272 69.1069 214.974 66.9281C214.675 64.7492 214.524 61.7304 214.521 57.8716Z" fill="white"/>
<path d="M311.805 51.3836V41.9042C311.784 39.3074 311.572 36.7157 311.17 34.15C310.748 31.2989 309.464 28.6119 307.321 26.0892C305.177 23.5664 301.814 21.4369 297.233 19.7006C292.656 17.9629 286.219 17.094 277.921 17.094C274.443 17.1105 270.971 17.3591 267.526 17.8381C263.887 18.3244 260.34 19.3489 257.003 20.8781C253.652 22.419 250.643 24.6116 248.149 27.328C245.587 30.1087 243.838 33.768 242.902 38.3062H259.457C259.761 37.2846 260.192 36.3053 260.74 35.3909C261.339 34.3579 262.302 33.4066 263.628 32.537C264.954 31.6674 266.771 30.9437 269.08 30.3659C271.39 29.7894 274.384 29.5005 278.062 29.4991C284.65 29.4991 289.27 30.3053 291.922 31.9176C294.574 33.5299 295.901 35.6178 295.901 38.1814V41.1601C292.219 41.4082 288.241 41.6971 283.965 42.0269C279.703 42.3564 275.463 42.916 271.262 43.7033C267.166 44.4645 263.118 45.4583 259.136 46.6798C255.242 47.8806 251.82 49.4513 248.87 51.392C246.041 53.2161 243.616 55.6022 241.748 58.4021C239.951 61.1292 239.053 64.3538 239.054 68.0759C239.054 72.2138 240.016 75.5843 241.94 78.1873C243.804 80.7339 246.216 82.8291 248.999 84.318C251.727 85.7891 254.673 86.8147 257.726 87.3559C260.38 87.8573 263.063 88.1975 265.759 88.3748C269.044 88.5418 269.575 88.5376 274.152 88.1634C283.684 87.2481 290.1 84.9015 295.856 81.9228C295.959 82.9281 296.296 83.8954 296.839 84.7472C297.846 86.7999 300.283 87.9626 302.824 88.1486H311.781V73.6083H311.805V73.5597L311.762 73.5935V68.9617L295.789 67.6489C294.271 68.541 292.551 69.4712 290.63 70.4394C288.525 71.4909 286.361 72.4233 284.151 73.232C281.681 74.1334 279.151 74.8582 276.578 75.401C273.773 75.9918 270.913 76.283 268.046 76.2699C264.11 76.2699 261.18 75.4433 259.256 73.7902C257.332 72.137 256.416 69.8623 256.508 66.9661C256.592 64.0741 257.812 61.7592 260.165 60.0215C262.519 58.2837 266.175 56.8363 271.135 55.6793C274.899 54.7702 278.814 54.0261 282.878 53.4468C287.197 52.8467 291.545 52.4734 295.903 52.3285V64.6153C302.228 60.7677 307.53 56.0302 311.815 51.3899" fill="white"/>
<path d="M330 52.7513V39.2089C329.776 39.583 327.421 42.9 321.844 48.1237V62.552C325.121 59.3365 328.087 55.9499 330 52.7513Z" fill="white"/>
<path d="M311.8 56.5799C307.439 59.9285 302.169 63.6217 295.85 67.5432V81.8552C297.484 81.0752 299.867 79.7053 303.642 77.4369C304.877 76.5913 308.023 74.342 311.802 71.3316L311.8 56.5799Z" fill="white"/>
</g>
<defs>
<clipPath id="clip0_5_1513">
<rect width="329.989" height="88.489" fill="white"/>
</clipPath>
</defs>
</svg>
